<?xml version="1.0" encoding="UTF-8" standalone="no"?>
<!DOCTYPE svg PUBLIC "-//W3C//DTD SVG 1.1//EN"
 "http://www.w3.org/Graphics/SVG/1.1/DTD/svg11.dtd">
<!-- Generated by graphviz version 2.38.0 (20140413.2041)
 -->
<!-- Title: merged Pages: 1 -->
<svg width="1004pt" height="389pt"
 viewBox="0.00 0.00 1004.32 388.85" xmlns="http://www.w3.org/2000/svg" xmlns:xlink="http://www.w3.org/1999/xlink">
<g id="graph0" class="graph" transform="scale(1 1) rotate(0) translate(4 384.853)">
<title>merged</title>
<polygon fill="white" stroke="none" points="-4,4 -4,-384.853 1000.32,-384.853 1000.32,4 -4,4"/>
<!-- data -->
<g id="node1" class="node"><title>data</title>
<ellipse fill="none" stroke="black" cx="539.66" cy="-18" rx="70.4255" ry="18"/>
<text text-anchor="middle" x="539.66" y="-14.514" font-family="Inconsolata" font-size="14.00">Training Data</text>
</g>
<!-- vect1 -->
<g id="node2" class="node"><title>vect1</title>
<ellipse fill="none" stroke="black" cx="539.66" cy="-99.4754" rx="110.118" ry="27.4509"/>
<text text-anchor="middle" x="539.66" y="-103.704" font-family="Inconsolata" font-size="14.00">CountVectorizer</text>
<text text-anchor="middle" x="539.66" y="-88.2754" font-family="Inconsolata" font-size="14.00">&#45; ngram_range=(1, 1)</text>
</g>
<!-- data&#45;&gt;vect1 -->
<g id="edge1" class="edge"><title>data&#45;&gt;vect1</title>
<path fill="none" stroke="black" d="M539.66,-36.245C539.66,-43.7264 539.66,-52.7938 539.66,-61.6655"/>
<polygon fill="black" stroke="black" points="536.161,-61.8835 539.66,-71.8835 543.161,-61.8835 536.161,-61.8835"/>
</g>
<!-- tfidf_1_1 -->
<g id="node3" class="node"><title>tfidf_1_1</title>
<ellipse fill="none" stroke="black" cx="328.66" cy="-190.426" rx="90.5193" ry="27.4509"/>
<text text-anchor="middle" x="328.66" y="-194.654" font-family="Inconsolata" font-size="14.00">TfidfTransformer</text>
<text text-anchor="middle" x="328.66" y="-179.226" font-family="Inconsolata" font-size="14.00">&#45; norm=&#39;l1&#39;</text>
</g>
<!-- vect1&#45;&gt;tfidf_1_1 -->
<g id="edge2" class="edge"><title>vect1&#45;&gt;tfidf_1_1</title>
<path fill="none" stroke="black" d="M485.048,-123.498C455.85,-135.807 419.814,-150.999 389.695,-163.696"/>
<polygon fill="black" stroke="black" points="387.995,-160.614 380.14,-167.724 390.715,-167.065 387.995,-160.614"/>
</g>
<!-- tfidf_1_2 -->
<g id="node4" class="node"><title>tfidf_1_2</title>
<ellipse fill="none" stroke="black" cx="666.66" cy="-190.426" rx="90.5193" ry="27.4509"/>
<text text-anchor="middle" x="666.66" y="-194.654" font-family="Inconsolata" font-size="14.00">TfidfTransformer</text>
<text text-anchor="middle" x="666.66" y="-179.226" font-family="Inconsolata" font-size="14.00">&#45; norm=&#39;l2&#39;</text>
</g>
<!-- vect1&#45;&gt;tfidf_1_2 -->
<g id="edge9" class="edge"><title>vect1&#45;&gt;tfidf_1_2</title>
<path fill="none" stroke="black" d="M575.375,-125.49C590.232,-135.896 607.616,-148.071 623.204,-158.99"/>
<polygon fill="black" stroke="black" points="621.454,-162.037 631.652,-164.907 625.47,-156.303 621.454,-162.037"/>
</g>
<!-- sgd_1_1_1 -->
<g id="node5" class="node"><title>sgd_1_1_1</title>
<ellipse fill="none" stroke="black" cx="75.6604" cy="-281.377" rx="75.8212" ry="27.4509"/>
<text text-anchor="middle" x="75.6604" y="-285.605" font-family="Inconsolata" font-size="14.00">SGDClassifier</text>
<text text-anchor="middle" x="75.6604" y="-270.177" font-family="Inconsolata" font-size="14.00">&#45; alpha=1e&#45;3</text>
</g>
<!-- tfidf_1_1&#45;&gt;sgd_1_1_1 -->
<g id="edge3" class="edge"><title>tfidf_1_1&#45;&gt;sgd_1_1_1</title>
<path fill="none" stroke="black" d="M270.934,-211.722C231.374,-225.631 178.922,-244.072 138.342,-258.339"/>
<polygon fill="black" stroke="black" points="137.096,-255.067 128.823,-261.686 139.418,-261.671 137.096,-255.067"/>
</g>
<!-- sgd_1_1_2 -->
<g id="node6" class="node"><title>sgd_1_1_2</title>
<ellipse fill="none" stroke="black" cx="244.66" cy="-281.377" rx="75.8212" ry="27.4509"/>
<text text-anchor="middle" x="244.66" y="-285.605" font-family="Inconsolata" font-size="14.00">SGDClassifier</text>
<text text-anchor="middle" x="244.66" y="-270.177" font-family="Inconsolata" font-size="14.00">&#45; alpha=1e&#45;4</text>
</g>
<!-- tfidf_1_1&#45;&gt;sgd_1_1_2 -->
<g id="edge5" class="edge"><title>tfidf_1_1&#45;&gt;sgd_1_1_2</title>
<path fill="none" stroke="black" d="M304.364,-217.155C295.406,-226.64 285.133,-237.519 275.663,-247.548"/>
<polygon fill="black" stroke="black" points="272.933,-245.34 268.612,-255.014 278.023,-250.146 272.933,-245.34"/>
</g>
<!-- sgd_1_1_3 -->
<g id="node7" class="node"><title>sgd_1_1_3</title>
<ellipse fill="none" stroke="black" cx="413.66" cy="-281.377" rx="75.8212" ry="27.4509"/>
<text text-anchor="middle" x="413.66" y="-285.605" font-family="Inconsolata" font-size="14.00">SGDClassifier</text>
<text text-anchor="middle" x="413.66" y="-270.177" font-family="Inconsolata" font-size="14.00">&#45; alpha=1e&#45;5</text>
</g>
<!-- tfidf_1_1&#45;&gt;sgd_1_1_3 -->
<g id="edge7" class="edge"><title>tfidf_1_1&#45;&gt;sgd_1_1_3</title>
<path fill="none" stroke="black" d="M353.246,-217.155C362.311,-226.64 372.706,-237.519 382.289,-247.548"/>
<polygon fill="black" stroke="black" points="379.985,-250.202 389.424,-255.014 385.045,-245.366 379.985,-250.202"/>
</g>
<!-- sgd_1_2_1 -->
<g id="node8" class="node"><title>sgd_1_2_1</title>
<ellipse fill="none" stroke="black" cx="582.66" cy="-281.377" rx="75.8212" ry="27.4509"/>
<text text-anchor="middle" x="582.66" y="-285.605" font-family="Inconsolata" font-size="14.00">SGDClassifier</text>
<text text-anchor="middle" x="582.66" y="-270.177" font-family="Inconsolata" font-size="14.00">&#45; alpha=1e&#45;3</text>
</g>
<!-- tfidf_1_2&#45;&gt;sgd_1_2_1 -->
<g id="edge10" class="edge"><title>tfidf_1_2&#45;&gt;sgd_1_2_1</title>
<path fill="none" stroke="black" d="M642.364,-217.155C633.406,-226.64 623.133,-237.519 613.663,-247.548"/>
<polygon fill="black" stroke="black" points="610.933,-245.34 606.612,-255.014 616.023,-250.146 610.933,-245.34"/>
</g>
<!-- sgd_1_2_2 -->
<g id="node9" class="node"><title>sgd_1_2_2</title>
<ellipse fill="none" stroke="black" cx="751.66" cy="-281.377" rx="75.8212" ry="27.4509"/>
<text text-anchor="middle" x="751.66" y="-285.605" font-family="Inconsolata" font-size="14.00">SGDClassifier</text>
<text text-anchor="middle" x="751.66" y="-270.177" font-family="Inconsolata" font-size="14.00">&#45; alpha=1e&#45;4</text>
</g>
<!-- tfidf_1_2&#45;&gt;sgd_1_2_2 -->
<g id="edge12" class="edge"><title>tfidf_1_2&#45;&gt;sgd_1_2_2</title>
<path fill="none" stroke="black" d="M691.246,-217.155C700.311,-226.64 710.706,-237.519 720.289,-247.548"/>
<polygon fill="black" stroke="black" points="717.985,-250.202 727.424,-255.014 723.045,-245.366 717.985,-250.202"/>
</g>
<!-- sgd_1_2_3 -->
<g id="node10" class="node"><title>sgd_1_2_3</title>
<ellipse fill="none" stroke="black" cx="920.66" cy="-281.377" rx="75.8212" ry="27.4509"/>
<text text-anchor="middle" x="920.66" y="-285.605" font-family="Inconsolata" font-size="14.00">SGDClassifier</text>
<text text-anchor="middle" x="920.66" y="-270.177" font-family="Inconsolata" font-size="14.00">&#45; alpha=1e&#45;5</text>
</g>
<!-- tfidf_1_2&#45;&gt;sgd_1_2_3 -->
<g id="edge14" class="edge"><title>tfidf_1_2&#45;&gt;sgd_1_2_3</title>
<path fill="none" stroke="black" d="M724.615,-211.722C764.331,-225.631 816.991,-244.072 857.732,-258.339"/>
<polygon fill="black" stroke="black" points="856.692,-261.684 867.287,-261.686 859.006,-255.077 856.692,-261.684"/>
</g>
<!-- best -->
<g id="node11" class="node"><title>best</title>
<ellipse fill="none" stroke="black" cx="497.66" cy="-362.853" rx="111.9" ry="18"/>
<text text-anchor="middle" x="497.66" y="-359.367" font-family="Inconsolata" font-size="14.00">Choose Best Parameters</text>
</g>
<!-- sgd_1_1_1&#45;&gt;best -->
<g id="edge4" class="edge"><title>sgd_1_1_1&#45;&gt;best</title>
<path fill="none" stroke="black" d="M129.553,-300.672C139.493,-303.671 149.835,-306.548 159.66,-308.853 239.416,-327.563 331.34,-341.497 399.172,-350.369"/>
<polygon fill="black" stroke="black" points="399.056,-353.883 409.423,-351.696 399.955,-346.941 399.056,-353.883"/>
</g>
<!-- sgd_1_1_2&#45;&gt;best -->
<g id="edge6" class="edge"><title>sgd_1_1_2&#45;&gt;best</title>
<path fill="none" stroke="black" d="M300.685,-300.048C310.027,-302.99 319.617,-306.009 328.66,-308.853 365.346,-320.386 406.521,-333.3 439.044,-343.492"/>
<polygon fill="black" stroke="black" points="438.255,-346.913 448.844,-346.564 440.349,-340.234 438.255,-346.913"/>
</g>
<!-- sgd_1_1_3&#45;&gt;best -->
<g id="edge8" class="edge"><title>sgd_1_1_3&#45;&gt;best</title>
<path fill="none" stroke="black" d="M440.239,-307.524C450.503,-317.236 462.196,-328.298 472.338,-337.895"/>
<polygon fill="black" stroke="black" points="470.074,-340.57 479.743,-344.901 474.885,-335.485 470.074,-340.57"/>
</g>
<!-- sgd_1_2_1&#45;&gt;best -->
<g id="edge11" class="edge"><title>sgd_1_2_1&#45;&gt;best</title>
<path fill="none" stroke="black" d="M555.766,-307.524C545.379,-317.236 533.547,-328.298 523.284,-337.895"/>
<polygon fill="black" stroke="black" points="520.705,-335.514 515.791,-344.901 525.486,-340.627 520.705,-335.514"/>
</g>
<!-- sgd_1_2_2&#45;&gt;best -->
<g id="edge13" class="edge"><title>sgd_1_2_2&#45;&gt;best</title>
<path fill="none" stroke="black" d="M695.64,-300.061C686.298,-303.002 676.707,-306.017 667.66,-308.853 630.768,-320.418 589.349,-333.332 556.632,-343.517"/>
<polygon fill="black" stroke="black" points="555.28,-340.272 546.772,-346.586 557.36,-346.956 555.28,-340.272"/>
</g>
<!-- sgd_1_2_3&#45;&gt;best -->
<g id="edge15" class="edge"><title>sgd_1_2_3&#45;&gt;best</title>
<path fill="none" stroke="black" d="M866.768,-300.675C856.828,-303.675 846.486,-306.55 836.66,-308.853 756.67,-327.599 664.474,-341.53 596.441,-350.392"/>
<polygon fill="black" stroke="black" points="595.631,-346.968 586.16,-351.717 596.525,-353.91 595.631,-346.968"/>
</g>
</g>
</svg>
