<?xml version="1.0" encoding="UTF-8" standalone="no"?>
<!DOCTYPE svg PUBLIC "-//W3C//DTD SVG 1.1//EN"
 "http://www.w3.org/Graphics/SVG/1.1/DTD/svg11.dtd">
<!-- Generated by graphviz version 2.38.0 (20140413.2041)
 -->
<!-- Title: unmerged Pages: 1 -->
<svg width="1424pt" height="389pt"
 viewBox="0.00 0.00 1423.62 388.85" xmlns="http://www.w3.org/2000/svg" xmlns:xlink="http://www.w3.org/1999/xlink">
<g id="graph0" class="graph" transform="scale(1 1) rotate(0) translate(4 384.853)">
<title>unmerged</title>
<polygon fill="white" stroke="none" points="-4,4 -4,-384.853 1419.62,-384.853 1419.62,4 -4,4"/>
<!-- data -->
<g id="node1" class="node"><title>data</title>
<ellipse fill="none" stroke="black" cx="707.309" cy="-18" rx="70.4255" ry="18"/>
<text text-anchor="middle" x="707.309" y="-14.514" font-family="Inconsolata" font-size="14.00">Training Data</text>
</g>
<!-- vect1 -->
<g id="node2" class="node"><title>vect1</title>
<ellipse fill="none" stroke="black" cx="110.309" cy="-99.4754" rx="110.118" ry="27.4509"/>
<text text-anchor="middle" x="110.309" y="-103.704" font-family="Inconsolata" font-size="14.00">CountVectorizer</text>
<text text-anchor="middle" x="110.309" y="-88.2754" font-family="Inconsolata" font-size="14.00">&#45; ngram_range=(1, 1)</text>
</g>
<!-- data&#45;&gt;vect1 -->
<g id="edge1" class="edge"><title>data&#45;&gt;vect1</title>
<path fill="none" stroke="black" d="M641.03,-24.1191C548.625,-31.7659 376.018,-47.9016 230.309,-72 219.914,-73.7191 209.065,-75.7601 198.323,-77.9349"/>
<polygon fill="black" stroke="black" points="197.588,-74.5127 188.504,-79.9644 199.005,-81.3678 197.588,-74.5127"/>
</g>
<!-- vect2 -->
<g id="node3" class="node"><title>vect2</title>
<ellipse fill="none" stroke="black" cx="349.309" cy="-99.4754" rx="110.118" ry="27.4509"/>
<text text-anchor="middle" x="349.309" y="-103.704" font-family="Inconsolata" font-size="14.00">CountVectorizer</text>
<text text-anchor="middle" x="349.309" y="-88.2754" font-family="Inconsolata" font-size="14.00">&#45; ngram_range=(1, 1)</text>
</g>
<!-- data&#45;&gt;vect2 -->
<g id="edge5" class="edge"><title>data&#45;&gt;vect2</title>
<path fill="none" stroke="black" d="M656.016,-30.3869C599.719,-42.8847 508.257,-63.1892 439.835,-78.3787"/>
<polygon fill="black" stroke="black" points="438.918,-74.9971 429.914,-80.5812 440.435,-81.8307 438.918,-74.9971"/>
</g>
<!-- vect3 -->
<g id="node4" class="node"><title>vect3</title>
<ellipse fill="none" stroke="black" cx="588.309" cy="-99.4754" rx="110.118" ry="27.4509"/>
<text text-anchor="middle" x="588.309" y="-103.704" font-family="Inconsolata" font-size="14.00">CountVectorizer</text>
<text text-anchor="middle" x="588.309" y="-88.2754" font-family="Inconsolata" font-size="14.00">&#45; ngram_range=(1, 1)</text>
</g>
<!-- data&#45;&gt;vect3 -->
<g id="edge9" class="edge"><title>data&#45;&gt;vect3</title>
<path fill="none" stroke="black" d="M683.227,-35.083C669.232,-44.4302 651.125,-56.5227 634.485,-67.6364"/>
<polygon fill="black" stroke="black" points="632.318,-64.8747 625.946,-73.3391 636.205,-70.6958 632.318,-64.8747"/>
</g>
<!-- vect4 -->
<g id="node5" class="node"><title>vect4</title>
<ellipse fill="none" stroke="black" cx="827.309" cy="-99.4754" rx="110.118" ry="27.4509"/>
<text text-anchor="middle" x="827.309" y="-103.704" font-family="Inconsolata" font-size="14.00">CountVectorizer</text>
<text text-anchor="middle" x="827.309" y="-88.2754" font-family="Inconsolata" font-size="14.00">&#45; ngram_range=(1, 1)</text>
</g>
<!-- data&#45;&gt;vect4 -->
<g id="edge13" class="edge"><title>data&#45;&gt;vect4</title>
<path fill="none" stroke="black" d="M731.592,-35.083C745.706,-44.4302 763.964,-56.5227 780.745,-67.6364"/>
<polygon fill="black" stroke="black" points="779.085,-70.7354 789.355,-73.3391 782.951,-64.8993 779.085,-70.7354"/>
</g>
<!-- vect5 -->
<g id="node6" class="node"><title>vect5</title>
<ellipse fill="none" stroke="black" cx="1066.31" cy="-99.4754" rx="110.118" ry="27.4509"/>
<text text-anchor="middle" x="1066.31" y="-103.704" font-family="Inconsolata" font-size="14.00">CountVectorizer</text>
<text text-anchor="middle" x="1066.31" y="-88.2754" font-family="Inconsolata" font-size="14.00">&#45; ngram_range=(1, 1)</text>
</g>
<!-- data&#45;&gt;vect5 -->
<g id="edge17" class="edge"><title>data&#45;&gt;vect5</title>
<path fill="none" stroke="black" d="M758.745,-30.3869C815.291,-42.9051 907.217,-63.2557 975.866,-78.4533"/>
<polygon fill="black" stroke="black" points="975.299,-81.9123 985.819,-80.6566 976.812,-75.0778 975.299,-81.9123"/>
</g>
<!-- vect6 -->
<g id="node7" class="node"><title>vect6</title>
<ellipse fill="none" stroke="black" cx="1305.31" cy="-99.4754" rx="110.118" ry="27.4509"/>
<text text-anchor="middle" x="1305.31" y="-103.704" font-family="Inconsolata" font-size="14.00">CountVectorizer</text>
<text text-anchor="middle" x="1305.31" y="-88.2754" font-family="Inconsolata" font-size="14.00">&#45; ngram_range=(1, 1)</text>
</g>
<!-- data&#45;&gt;vect6 -->
<g id="edge21" class="edge"><title>data&#45;&gt;vect6</title>
<path fill="none" stroke="black" d="M773.726,-24.1097C866.326,-31.7456 1039.3,-47.8684 1185.31,-72 1195.7,-73.7179 1206.55,-75.7582 1217.3,-77.9326"/>
<polygon fill="black" stroke="black" points="1216.61,-81.3655 1227.11,-79.9618 1218.03,-74.5103 1216.61,-81.3655"/>
</g>
<!-- tfidf1 -->
<g id="node8" class="node"><title>tfidf1</title>
<ellipse fill="none" stroke="black" cx="150.309" cy="-190.426" rx="90.5193" ry="27.4509"/>
<text text-anchor="middle" x="150.309" y="-194.654" font-family="Inconsolata" font-size="14.00">TfidfTransformer</text>
<text text-anchor="middle" x="150.309" y="-179.226" font-family="Inconsolata" font-size="14.00">&#45; norm=&#39;l1&#39;</text>
</g>
<!-- vect1&#45;&gt;tfidf1 -->
<g id="edge2" class="edge"><title>vect1&#45;&gt;tfidf1</title>
<path fill="none" stroke="black" d="M122.31,-127.164C126.062,-135.507 130.263,-144.849 134.247,-153.709"/>
<polygon fill="black" stroke="black" points="131.16,-155.379 138.454,-163.063 137.544,-152.508 131.16,-155.379"/>
</g>
<!-- tfidf2 -->
<g id="node9" class="node"><title>tfidf2</title>
<ellipse fill="none" stroke="black" cx="369.309" cy="-190.426" rx="90.5193" ry="27.4509"/>
<text text-anchor="middle" x="369.309" y="-194.654" font-family="Inconsolata" font-size="14.00">TfidfTransformer</text>
<text text-anchor="middle" x="369.309" y="-179.226" font-family="Inconsolata" font-size="14.00">&#45; norm=&#39;l1&#39;</text>
</g>
<!-- vect2&#45;&gt;tfidf2 -->
<g id="edge6" class="edge"><title>vect2&#45;&gt;tfidf2</title>
<path fill="none" stroke="black" d="M355.309,-127.164C357.129,-135.256 359.16,-144.288 361.098,-152.908"/>
<polygon fill="black" stroke="black" points="357.704,-153.768 363.312,-162.757 364.533,-152.233 357.704,-153.768"/>
</g>
<!-- tfidf3 -->
<g id="node10" class="node"><title>tfidf3</title>
<ellipse fill="none" stroke="black" cx="595.309" cy="-190.426" rx="90.5193" ry="27.4509"/>
<text text-anchor="middle" x="595.309" y="-194.654" font-family="Inconsolata" font-size="14.00">TfidfTransformer</text>
<text text-anchor="middle" x="595.309" y="-179.226" font-family="Inconsolata" font-size="14.00">&#45; norm=&#39;l1&#39;</text>
</g>
<!-- vect3&#45;&gt;tfidf3 -->
<g id="edge10" class="edge"><title>vect3&#45;&gt;tfidf3</title>
<path fill="none" stroke="black" d="M590.409,-127.164C591.039,-135.168 591.741,-144.092 592.413,-152.627"/>
<polygon fill="black" stroke="black" points="588.936,-153.062 593.21,-162.757 595.915,-152.513 588.936,-153.062"/>
</g>
<!-- tfidf4 -->
<g id="node11" class="node"><title>tfidf4</title>
<ellipse fill="none" stroke="black" cx="809.309" cy="-190.426" rx="90.5193" ry="27.4509"/>
<text text-anchor="middle" x="809.309" y="-194.654" font-family="Inconsolata" font-size="14.00">TfidfTransformer</text>
<text text-anchor="middle" x="809.309" y="-179.226" font-family="Inconsolata" font-size="14.00">&#45; norm=&#39;l2&#39;</text>
</g>
<!-- vect4&#45;&gt;tfidf4 -->
<g id="edge14" class="edge"><title>vect4&#45;&gt;tfidf4</title>
<path fill="none" stroke="black" d="M821.908,-127.164C820.271,-135.256 818.443,-144.288 816.698,-152.908"/>
<polygon fill="black" stroke="black" points="813.258,-152.261 814.705,-162.757 820.119,-153.65 813.258,-152.261"/>
</g>
<!-- tfidf5 -->
<g id="node12" class="node"><title>tfidf5</title>
<ellipse fill="none" stroke="black" cx="1038.31" cy="-190.426" rx="90.5193" ry="27.4509"/>
<text text-anchor="middle" x="1038.31" y="-194.654" font-family="Inconsolata" font-size="14.00">TfidfTransformer</text>
<text text-anchor="middle" x="1038.31" y="-179.226" font-family="Inconsolata" font-size="14.00">&#45; norm=&#39;l2&#39;</text>
</g>
<!-- vect5&#45;&gt;tfidf5 -->
<g id="edge18" class="edge"><title>vect5&#45;&gt;tfidf5</title>
<path fill="none" stroke="black" d="M1057.91,-127.164C1055.31,-135.418 1052.4,-144.651 1049.64,-153.426"/>
<polygon fill="black" stroke="black" points="1046.27,-152.474 1046.61,-163.063 1052.95,-154.576 1046.27,-152.474"/>
</g>
<!-- tfidf6 -->
<g id="node13" class="node"><title>tfidf6</title>
<ellipse fill="none" stroke="black" cx="1297.31" cy="-190.426" rx="90.5193" ry="27.4509"/>
<text text-anchor="middle" x="1297.31" y="-194.654" font-family="Inconsolata" font-size="14.00">TfidfTransformer</text>
<text text-anchor="middle" x="1297.31" y="-179.226" font-family="Inconsolata" font-size="14.00">&#45; norm=&#39;l2&#39;</text>
</g>
<!-- vect6&#45;&gt;tfidf6 -->
<g id="edge22" class="edge"><title>vect6&#45;&gt;tfidf6</title>
<path fill="none" stroke="black" d="M1302.91,-127.164C1302.19,-135.168 1301.39,-144.092 1300.62,-152.627"/>
<polygon fill="black" stroke="black" points="1297.12,-152.484 1299.71,-162.757 1304.09,-153.111 1297.12,-152.484"/>
</g>
<!-- sgd1 -->
<g id="node14" class="node"><title>sgd1</title>
<ellipse fill="none" stroke="black" cx="178.309" cy="-281.377" rx="75.8212" ry="27.4509"/>
<text text-anchor="middle" x="178.309" y="-285.605" font-family="Inconsolata" font-size="14.00">SGDClassifier</text>
<text text-anchor="middle" x="178.309" y="-270.177" font-family="Inconsolata" font-size="14.00">&#45; alpha=1e&#45;3</text>
</g>
<!-- tfidf1&#45;&gt;sgd1 -->
<g id="edge3" class="edge"><title>tfidf1&#45;&gt;sgd1</title>
<path fill="none" stroke="black" d="M158.71,-218.115C161.308,-226.369 164.214,-235.602 166.977,-244.377"/>
<polygon fill="black" stroke="black" points="163.669,-245.527 170.01,-254.014 170.346,-243.425 163.669,-245.527"/>
</g>
<!-- sgd2 -->
<g id="node15" class="node"><title>sgd2</title>
<ellipse fill="none" stroke="black" cx="407.309" cy="-281.377" rx="75.8212" ry="27.4509"/>
<text text-anchor="middle" x="407.309" y="-285.605" font-family="Inconsolata" font-size="14.00">SGDClassifier</text>
<text text-anchor="middle" x="407.309" y="-270.177" font-family="Inconsolata" font-size="14.00">&#45; alpha=1e&#45;4</text>
</g>
<!-- tfidf2&#45;&gt;sgd2 -->
<g id="edge7" class="edge"><title>tfidf2&#45;&gt;sgd2</title>
<path fill="none" stroke="black" d="M380.71,-218.115C384.274,-226.457 388.265,-235.8 392.05,-244.66"/>
<polygon fill="black" stroke="black" points="388.899,-246.193 396.046,-254.014 395.336,-243.443 388.899,-246.193"/>
</g>
<!-- sgd3 -->
<g id="node16" class="node"><title>sgd3</title>
<ellipse fill="none" stroke="black" cx="606.309" cy="-281.377" rx="75.8212" ry="27.4509"/>
<text text-anchor="middle" x="606.309" y="-285.605" font-family="Inconsolata" font-size="14.00">SGDClassifier</text>
<text text-anchor="middle" x="606.309" y="-270.177" font-family="Inconsolata" font-size="14.00">&#45; alpha=1e&#45;5</text>
</g>
<!-- tfidf3&#45;&gt;sgd3 -->
<g id="edge11" class="edge"><title>tfidf3&#45;&gt;sgd3</title>
<path fill="none" stroke="black" d="M598.609,-218.115C599.599,-226.118 600.702,-235.043 601.758,-243.578"/>
<polygon fill="black" stroke="black" points="598.31,-244.213 603.011,-253.708 605.257,-243.354 598.31,-244.213"/>
</g>
<!-- sgd4 -->
<g id="node17" class="node"><title>sgd4</title>
<ellipse fill="none" stroke="black" cx="797.309" cy="-281.377" rx="75.8212" ry="27.4509"/>
<text text-anchor="middle" x="797.309" y="-285.605" font-family="Inconsolata" font-size="14.00">SGDClassifier</text>
<text text-anchor="middle" x="797.309" y="-270.177" font-family="Inconsolata" font-size="14.00">&#45; alpha=1e&#45;3</text>
</g>
<!-- tfidf4&#45;&gt;sgd4 -->
<g id="edge15" class="edge"><title>tfidf4&#45;&gt;sgd4</title>
<path fill="none" stroke="black" d="M805.708,-218.115C804.628,-226.118 803.425,-235.043 802.273,-243.578"/>
<polygon fill="black" stroke="black" points="798.775,-243.33 800.907,-253.708 805.712,-244.266 798.775,-243.33"/>
</g>
<!-- sgd5 -->
<g id="node18" class="node"><title>sgd5</title>
<ellipse fill="none" stroke="black" cx="1007.31" cy="-281.377" rx="75.8212" ry="27.4509"/>
<text text-anchor="middle" x="1007.31" y="-285.605" font-family="Inconsolata" font-size="14.00">SGDClassifier</text>
<text text-anchor="middle" x="1007.31" y="-270.177" font-family="Inconsolata" font-size="14.00">&#45; alpha=1e&#45;4</text>
</g>
<!-- tfidf5&#45;&gt;sgd5 -->
<g id="edge19" class="edge"><title>tfidf5&#45;&gt;sgd5</title>
<path fill="none" stroke="black" d="M1029.01,-218.115C1026.13,-226.369 1022.91,-235.602 1019.85,-244.377"/>
<polygon fill="black" stroke="black" points="1016.48,-243.42 1016.5,-254.014 1023.09,-245.723 1016.48,-243.42"/>
</g>
<!-- sgd6 -->
<g id="node19" class="node"><title>sgd6</title>
<ellipse fill="none" stroke="black" cx="1242.31" cy="-281.377" rx="75.8212" ry="27.4509"/>
<text text-anchor="middle" x="1242.31" y="-285.605" font-family="Inconsolata" font-size="14.00">SGDClassifier</text>
<text text-anchor="middle" x="1242.31" y="-270.177" font-family="Inconsolata" font-size="14.00">&#45; alpha=1e&#45;5</text>
</g>
<!-- tfidf6&#45;&gt;sgd6 -->
<g id="edge23" class="edge"><title>tfidf6&#45;&gt;sgd6</title>
<path fill="none" stroke="black" d="M1281.1,-217.633C1275.68,-226.41 1269.54,-236.336 1263.78,-245.66"/>
<polygon fill="black" stroke="black" points="1260.68,-244.011 1258.4,-254.357 1266.63,-247.693 1260.68,-244.011"/>
</g>
<!-- best -->
<g id="node20" class="node"><title>best</title>
<ellipse fill="none" stroke="black" cx="701.309" cy="-362.853" rx="111.9" ry="18"/>
<text text-anchor="middle" x="701.309" y="-359.367" font-family="Inconsolata" font-size="14.00">Choose Best Parameters</text>
</g>
<!-- sgd1&#45;&gt;best -->
<g id="edge4" class="edge"><title>sgd1&#45;&gt;best</title>
<path fill="none" stroke="black" d="M244.158,-295.098C268.655,-299.668 296.714,-304.712 322.309,-308.853 418.815,-324.465 529.592,-339.639 606.352,-349.722"/>
<polygon fill="black" stroke="black" points="606.111,-353.22 616.481,-351.049 607.021,-346.279 606.111,-353.22"/>
</g>
<!-- sgd2&#45;&gt;best -->
<g id="edge8" class="edge"><title>sgd2&#45;&gt;best</title>
<path fill="none" stroke="black" d="M466.804,-298.46C516.039,-311.77 585.866,-330.646 636.509,-344.336"/>
<polygon fill="black" stroke="black" points="635.804,-347.771 646.371,-347.002 637.63,-341.013 635.804,-347.771"/>
</g>
<!-- sgd3&#45;&gt;best -->
<g id="edge12" class="edge"><title>sgd3&#45;&gt;best</title>
<path fill="none" stroke="black" d="M635.587,-306.871C647.635,-316.951 661.528,-328.572 673.427,-338.527"/>
<polygon fill="black" stroke="black" points="671.384,-341.381 681.299,-345.113 675.875,-336.012 671.384,-341.381"/>
</g>
<!-- sgd4&#45;&gt;best -->
<g id="edge16" class="edge"><title>sgd4&#45;&gt;best</title>
<path fill="none" stroke="black" d="M767.722,-306.871C755.547,-316.951 741.509,-328.572 729.484,-338.527"/>
<polygon fill="black" stroke="black" points="726.999,-336.04 721.529,-345.113 731.463,-341.432 726.999,-336.04"/>
</g>
<!-- sgd5&#45;&gt;best -->
<g id="edge20" class="edge"><title>sgd5&#45;&gt;best</title>
<path fill="none" stroke="black" d="M946.853,-298.079C895.038,-311.536 820.542,-330.885 767.213,-344.736"/>
<polygon fill="black" stroke="black" points="766.311,-341.354 757.512,-347.255 768.07,-348.129 766.311,-341.354"/>
</g>
<!-- sgd6&#45;&gt;best -->
<g id="edge24" class="edge"><title>sgd6&#45;&gt;best</title>
<path fill="none" stroke="black" d="M1175.95,-294.679C1149.91,-299.351 1119.74,-304.574 1092.31,-308.853 991.863,-324.518 876.478,-339.832 797.229,-349.937"/>
<polygon fill="black" stroke="black" points="796.741,-346.471 787.263,-351.205 797.625,-353.415 796.741,-346.471"/>
</g>
</g>
</svg>
