<?xml version="1.0" encoding="utf-8"?>
<!-- Generator: Adobe Illustrator 26.2.1, SVG Export Plug-In . SVG Version: 6.00 Build 0)  -->
<svg version="1.1" id="Layer_1" xmlns="http://www.w3.org/2000/svg" xmlns:xlink="http://www.w3.org/1999/xlink" x="0px" y="0px"
	 viewBox="0 0 1440 562" style="enable-background:new 0 0 1440 562;" xml:space="preserve">
<style type="text/css">
	.st0{fill:none;stroke:#757575;stroke-dasharray:1,15;}
</style>
<path id="Path_8295" class="st0" d="M0,161h1439.6"/>
<path id="Path_8296" class="st0" d="M0,81h1439.6"/>
<path id="Path_8296_00000096037885263041380290000014297141447757918630_" class="st0" d="M0,0h1439.6"/>
<path id="Path_8297" class="st0" d="M0,321h1440"/>
<path id="Path_8298" class="st0" d="M0,401h1440"/>
<path id="Path_8299" class="st0" d="M0,241h1440"/>
<path id="Path_8300" class="st0" d="M0,481h1440"/>
<line id="Line_1049" class="st0" x1="800" y1="1" x2="800" y2="561"/>
<line id="Line_1050" class="st0" x1="640" y1="1" x2="640" y2="562"/>
<line id="Line_1107" class="st0" x1="560" y1="1" x2="560" y2="561"/>
<line id="Line_1108" class="st0" x1="480" y1="1" x2="480" y2="561"/>
<line id="Line_1109" class="st0" x1="400" y1="1" x2="400" y2="561"/>
<line id="Line_1110" class="st0" x1="320" y1="1" x2="320" y2="561"/>
<line id="Line_1111" class="st0" x1="240" y1="0" x2="240" y2="561"/>
<line id="Line_1112" class="st0" x1="160" y1="0" x2="160" y2="561"/>
<line id="Line_1113" class="st0" x1="80" y1="0" x2="80" y2="562"/>
<line id="Line_1113_00000180336620977181192150000005655404684751324063_" class="st0" x1="0" y1="0" x2="0" y2="562"/>
<line id="Line_1051" class="st0" x1="960" y1="1" x2="960" y2="559"/>
<line id="Line_1052" class="st0" x1="1120" y1="1" x2="1120" y2="561"/>
<line id="Line_1053" class="st0" x1="1279.9" y1="1" x2="1279.9" y2="561.5"/>
<line id="Line_1054" class="st0" x1="1200" y1="481" x2="1200" y2="561"/>
<line id="Line_1055" class="st0" x1="1200" y1="1" x2="1200" y2="481"/>
<line id="Line_1056" class="st0" x1="1040" y1="401" x2="1040" y2="561"/>
<line id="Line_1057" class="st0" x1="1040" y1="1" x2="1040" y2="401"/>
<line id="Line_1058" class="st0" x1="880" y1="401" x2="880" y2="561"/>
<line id="Line_1059" class="st0" x1="880" y1="1" x2="880" y2="401"/>
<line id="Line_1060" class="st0" x1="720" y1="1" x2="720" y2="561"/>
<line id="Line_1062" class="st0" x1="1360.6" y1="1" x2="1360.6" y2="562"/>
</svg>
