<?xml version="1.0" encoding="UTF-8"?><svg id="Layer_1" xmlns="http://www.w3.org/2000/svg" viewBox="0 0 40 40"><path d="M31.0879,28.7554H8.9121c-.7856,0-1.4226,.6367-1.4226,1.4226s.637,1.4226,1.4226,1.4226H31.0879c.7856,0,1.4226-.637,1.4226-1.4226s-.637-1.4226-1.4226-1.4226Z"/><path d="M18.8774,25.343c.3191,.3203,.7599,.5029,1.2114,.5029h.0115c.4557-.0034,.8989-.1924,1.2174-.521l4.6949-4.8528c.5463-.5649,.5312-1.4651-.0334-2.0117-.564-.5469-1.4651-.5308-2.0117,.0332l-2.4282,2.5103V9.8223c0-.7856-.637-1.4229-1.4226-1.4229s-1.4227,.6372-1.4227,1.4229v11.3137l-2.6591-2.6589c-.5558-.5557-1.4568-.5557-2.0118,0-.5558,.5557-.5558,1.4561,0,2.0117l4.8544,4.8542Z"/></svg>