<?xml version="1.0" encoding="UTF-8"?><svg id="Layer_1" xmlns="http://www.w3.org/2000/svg" viewBox="0 0 40 40"><path d="M7.928,17.0852c-.7857,0-1.4227-.637-1.4227-1.4227v-3.4539c0-1.3379,1.0889-2.4265,2.4271-2.4265h5.541c.7857,0,1.4227,.637,1.4227,1.4227s-.637,1.4227-1.4227,1.4227h-5.1228v3.035c0,.7857-.637,1.4227-1.4227,1.4227Z"/><path d="M14.4734,30.2178h-5.541c-1.3383,0-2.4271-1.0885-2.4271-2.4271v-3.2093c0-.7857,.637-1.4227,1.4227-1.4227s1.4227,.637,1.4227,1.4227v2.7912h5.1228c.7857,0,1.4227,.637,1.4227,1.4227s-.637,1.4227-1.4227,1.4227Z"/><path d="M32.072,17.0852c-.7857,0-1.4227-.637-1.4227-1.4227v-3.035h-5.1224c-.7857,0-1.4227-.637-1.4227-1.4227s.637-1.4227,1.4227-1.4227h5.541c1.3383,0,2.4268,1.0885,2.4268,2.4265v3.4539c0,.7857-.637,1.4227-1.4227,1.4227Zm-1.0041-4.4576h0Z"/><path d="M31.0679,30.2178h-5.541c-.7857,0-1.4227-.637-1.4227-1.4227s.637-1.4227,1.4227-1.4227h5.1224v-2.7912c0-.7857,.637-1.4227,1.4227-1.4227s1.4227,.637,1.4227,1.4227v3.2093c0,1.3386-1.0885,2.4271-2.4268,2.4271Z"/></svg>