<?xml version="1.0" encoding="UTF-8"?><svg id="Layer_1" xmlns="http://www.w3.org/2000/svg" viewBox="0 0 40 40"><path d="M31.7777,30.0962H8.2223c-.7857,0-1.4227-.637-1.4227-1.4227s.637-1.4227,1.4227-1.4227H31.7777c.7857,0,1.4227,.637,1.4227,1.4227s-.637,1.4227-1.4227,1.4227Z"/><path d="M31.7777,21.4227H8.2223c-.7857,0-1.4227-.637-1.4227-1.4227s.637-1.4227,1.4227-1.4227H31.7777c.7857,0,1.4227,.637,1.4227,1.4227s-.637,1.4227-1.4227,1.4227Z"/><path d="M31.7777,12.7491H8.2223c-.7857,0-1.4227-.637-1.4227-1.4227s.637-1.4227,1.4227-1.4227H31.7777c.7857,0,1.4227,.637,1.4227,1.4227s-.637,1.4227-1.4227,1.4227Z"/></svg>